<?xml version="1.0" standalone="no"?>
<!DOCTYPE svg PUBLIC "-//W3C//DTD SVG 20010904//EN"
 "http://www.w3.org/TR/2001/REC-SVG-20010904/DTD/svg10.dtd">
<svg version="1.0" xmlns="http://www.w3.org/2000/svg"
 width="250.000000pt" height="250.000000pt" viewBox="0 0 250.000000 250.000000"
 preserveAspectRatio="xMidYMid meet">

<g transform="translate(0.000000,250.000000) scale(0.100000,-0.100000)"
fill="#000000" stroke="none">
<path d="M1000 2244 c-120 -21 -155 -30 -223 -56 -131 -50 -252 -142 -341
-258 -62 -81 -92 -137 -128 -242 -31 -89 -33 -100 -32 -243 0 -172 12 -232 75
-362 79 -164 218 -302 382 -378 126 -58 184 -70 347 -70 137 1 150 2 240 33
52 18 113 44 136 57 l40 24 215 -216 c118 -118 234 -228 258 -244 95 -61 224
-23 267 78 18 42 18 105 -1 150 -10 23 -100 122 -244 267 l-229 231 29 55
c131 250 115 568 -42 811 -109 168 -279 289 -476 339 -73 19 -226 32 -273 24z
m209 -259 c201 -48 372 -225 416 -432 28 -131 15 -234 -46 -361 -76 -158 -221
-271 -394 -307 -94 -20 -147 -19 -237 4 -169 43 -300 147 -372 292 -112 228
-76 463 98 647 75 78 168 133 268 158 73 17 190 17 267 -1z"/>
<path d="M968 1699 c-16 -9 -18 -33 -18 -270 l0 -259 26 -10 c34 -13 320 -13
345 0 22 12 27 68 7 88 -8 8 -51 12 -129 12 l-118 0 -3 211 c-3 195 -4 212
-22 225 -23 16 -63 18 -88 3z"/>
</g>
</svg>
